<svg width="178" height="51" viewBox="0 0 178 51" fill="none" xmlns="http://www.w3.org/2000/svg">
<g filter="url(#filter0_d_13_9)">
<path d="M4.312 21V20.552L7.392 19.376V4.06H3.752L1.288 8.988H0.84V2.52H19.264V8.988H18.816L16.352 4.06H12.712V19.376L15.792 20.552V21H4.312ZM20.6577 21V20.552L22.5897 19.656V3.192L20.7417 1.988V1.54L27.1817 -1.66893e-06H27.6297V9.912H27.7417C28.3763 9.296 28.9923 8.80133 29.5897 8.428C30.2057 8.036 30.971 7.84 31.8857 7.84C33.043 7.84 33.9857 8.13867 34.7137 8.736C35.4603 9.33333 35.8337 10.22 35.8337 11.396V19.656L37.7657 20.552V21H29.7577V20.552L30.7937 19.656V12.432C30.7937 11.8907 30.6443 11.48 30.3457 11.2C30.0657 10.9013 29.6923 10.752 29.2257 10.752C28.9643 10.752 28.6843 10.808 28.3857 10.92C28.1057 11.032 27.8537 11.1627 27.6297 11.312V19.656L28.6657 20.552V21H20.6577ZM45.3432 21.28C43.3458 21.28 41.7685 20.72 40.6112 19.6C39.4538 18.48 38.8752 16.996 38.8752 15.148C38.8752 13.7107 39.2018 12.4507 39.8552 11.368C40.5272 10.2667 41.4325 9.408 42.5712 8.792C43.7098 8.15733 44.9885 7.84 46.4072 7.84C47.9565 7.84 49.1418 8.344 49.9632 9.352C50.7845 10.3413 51.2138 11.732 51.2512 13.524L51.1672 13.664H43.6912C43.6912 13.7947 43.6912 13.9347 43.6912 14.084C43.6912 15.148 44.0178 16.016 44.6712 16.688C45.3245 17.3413 46.3418 17.668 47.7232 17.668C48.2645 17.668 48.8245 17.6213 49.4032 17.528C50.0005 17.4347 50.5978 17.2387 51.1952 16.94H51.2792V17.528C50.8125 18.6107 50.0565 19.5067 49.0112 20.216C47.9845 20.9253 46.7618 21.28 45.3432 21.28ZM45.6232 9.1C45.1192 9.1 44.7085 9.38933 44.3912 9.968C44.0738 10.5467 43.8685 11.368 43.7752 12.432H47.4992C47.4058 11.144 47.2005 10.2667 46.8832 9.8C46.5658 9.33333 46.1458 9.1 45.6232 9.1Z" fill="white"/>
<path d="M4.84 44V43.552L7.332 42.376V27.144L4.84 25.968V25.52H16.096C17.552 25.52 18.8307 25.6973 19.932 26.052C21.0333 26.388 21.8827 26.92 22.48 27.648C23.096 28.376 23.404 29.3187 23.404 30.476C23.404 31.54 23.0493 32.464 22.34 33.248C21.6493 34.032 20.7067 34.6387 19.512 35.068C18.3173 35.4973 16.9547 35.712 15.424 35.712H12.652V42.376L15.732 43.552V44H4.84ZM12.652 27.06V34.452H13.352C14.8267 34.452 15.984 34.0973 16.824 33.388C17.664 32.6787 18.084 31.8013 18.084 30.756C18.084 29.4493 17.6547 28.5067 16.796 27.928C15.956 27.3493 14.7427 27.06 13.156 27.06H12.652ZM24.5209 44V43.552L26.4529 42.656V34.312L24.6049 33.108V32.66L30.7649 30.84H31.2129L31.4649 33.444H31.6049C32.0903 32.716 32.5103 32.1653 32.8649 31.792C33.2196 31.4187 33.5463 31.1667 33.8449 31.036C34.1623 30.9053 34.5169 30.84 34.9089 30.84C35.0769 30.84 35.2543 30.8587 35.4409 30.896C35.6276 30.9333 35.8049 30.98 35.9729 31.036C36.2903 31.1293 36.5049 31.2507 36.6169 31.4C36.7476 31.5307 36.8129 31.68 36.8129 31.848C36.8129 31.9787 36.7849 32.128 36.7289 32.296L35.9729 34.424H35.7769L35.2729 34.256C34.9556 34.144 34.6756 34.0693 34.4329 34.032C34.2089 33.976 33.9196 33.948 33.5649 33.948C33.1543 33.948 32.7716 34.0507 32.4169 34.256C32.0623 34.4427 31.7543 34.6853 31.4929 34.984V42.656L33.9289 43.552V44H24.5209ZM44.103 44.28C42.7217 44.28 41.499 43.972 40.435 43.356C39.371 42.7213 38.5403 41.9 37.943 40.892C37.3643 39.8653 37.075 38.7547 37.075 37.56C37.075 36.3653 37.3643 35.2547 37.943 34.228C38.5403 33.2013 39.371 32.38 40.435 31.764C41.499 31.148 42.7217 30.84 44.103 30.84C45.4843 30.84 46.707 31.148 47.771 31.764C48.835 32.38 49.6563 33.2013 50.235 34.228C50.8323 35.2547 51.131 36.3653 51.131 37.56C51.131 38.7547 50.8323 39.8653 50.235 40.892C49.6563 41.9 48.835 42.7213 47.771 43.356C46.707 43.972 45.4843 44.28 44.103 44.28ZM44.355 42.796C44.747 42.796 45.0737 42.5813 45.335 42.152C45.5963 41.7227 45.783 41.1627 45.895 40.472C46.0257 39.7627 46.091 38.9787 46.091 38.12C46.091 37.0747 46.0163 36.1133 45.867 35.236C45.7177 34.3587 45.475 33.6493 45.139 33.108C44.8217 32.5667 44.411 32.296 43.907 32.296C43.4777 32.296 43.1323 32.5107 42.871 32.94C42.6097 33.3507 42.4137 33.9107 42.283 34.62C42.171 35.3107 42.115 36.0947 42.115 36.972C42.115 37.9987 42.1897 38.96 42.339 39.856C42.507 40.7333 42.7497 41.4427 43.067 41.984C43.403 42.5253 43.8323 42.796 44.355 42.796ZM52.3842 50.44V49.992L54.3162 49.096V34.312L52.4682 33.108V32.66L58.6282 30.84H59.0762L59.3002 32.548H59.4122C60.1029 31.9507 60.7656 31.5213 61.4002 31.26C62.0349 30.98 62.7162 30.84 63.4442 30.84C64.2096 30.84 64.9376 31.092 65.6282 31.596C66.3376 32.1 66.9162 32.8187 67.3642 33.752C67.8122 34.6853 68.0362 35.796 68.0362 37.084C68.0362 38.5587 67.7282 39.8373 67.1122 40.92C66.4962 41.984 65.6842 42.8147 64.6762 43.412C63.6682 43.9907 62.5856 44.28 61.4282 44.28C61.0549 44.28 60.6909 44.2613 60.3362 44.224C60.0002 44.1867 59.6736 44.1307 59.3562 44.056V49.096L61.6522 49.992V50.44H52.3842ZM60.6442 33.388C60.3829 33.388 60.1589 33.4253 59.9722 33.5C59.8042 33.556 59.5989 33.6493 59.3562 33.78V42.012C59.4496 42.2173 59.6082 42.3947 59.8322 42.544C60.0749 42.6747 60.3362 42.74 60.6162 42.74C60.9709 42.74 61.3256 42.6187 61.6802 42.376C62.0536 42.1147 62.3616 41.6387 62.6042 40.948C62.8656 40.2387 62.9962 39.2027 62.9962 37.84C62.9962 36.328 62.7349 35.208 62.2122 34.48C61.7082 33.752 61.1856 33.388 60.6442 33.388ZM72.8667 44.252C72.2507 44.252 71.672 44.1213 71.1307 43.86C70.608 43.5987 70.188 43.216 69.8707 42.712C69.5533 42.1893 69.404 41.564 69.4227 40.836C69.4413 40.108 69.5627 39.52 69.7867 39.072C70.0293 38.6053 70.4773 38.2133 71.1307 37.896C71.784 37.56 72.736 37.224 73.9867 36.888L76.6187 36.188V34.676C76.6187 33.9107 76.432 33.3227 76.0587 32.912C75.6853 32.5013 75.1533 32.296 74.4627 32.296C73.436 32.296 72.9227 32.6973 72.9227 33.5V35.124L72.8387 35.236H70.7107C70.2067 35.236 69.9547 34.928 69.9547 34.312C69.9547 33.9013 70.1413 33.5093 70.5147 33.136C70.888 32.7627 71.364 32.3987 71.9427 32.044C72.708 31.5773 73.3893 31.26 73.9867 31.092C74.584 30.924 75.2373 30.84 75.9467 30.84C77.0293 30.84 78 30.9893 78.8587 31.288C79.7173 31.568 80.3987 31.9973 80.9027 32.576C81.4067 33.1547 81.6587 33.8827 81.6587 34.76V41.816C81.808 41.9467 81.976 42.0493 82.1627 42.124C82.368 42.1987 82.6013 42.236 82.8627 42.236H83.4787L83.5907 42.348V42.936C83.3853 43.2347 83.0213 43.5333 82.4987 43.832C81.976 44.1307 81.276 44.28 80.3987 44.28C79.4467 44.28 78.672 44.112 78.0747 43.776C77.496 43.4213 77.048 42.8987 76.7307 42.208H76.6187C76.152 42.7867 75.6107 43.272 74.9947 43.664C74.3973 44.056 73.688 44.252 72.8667 44.252ZM74.0987 39.884C74.0987 40.4627 74.248 40.9013 74.5467 41.2C74.864 41.4987 75.284 41.648 75.8067 41.648C76.068 41.648 76.3387 41.6013 76.6187 41.508V37.476C75.7227 37.6813 75.0787 37.9613 74.6867 38.316C74.2947 38.6707 74.0987 39.1933 74.0987 39.884ZM90.7657 39.548C89.8883 39.548 89.067 39.408 88.3017 39.128C88.0403 39.3707 87.9097 39.6693 87.9097 40.024C87.9097 40.4907 88.087 40.8267 88.4417 41.032C88.7963 41.2373 89.3657 41.34 90.1497 41.34H93.0617C94.5923 41.34 95.7217 41.676 96.4497 42.348C97.1777 43.02 97.5417 44.0093 97.5417 45.316C97.5417 46.212 97.2243 47.0707 96.5897 47.892C95.955 48.7133 95.0497 49.3853 93.8737 49.908C92.6977 50.4493 91.307 50.72 89.7017 50.72C87.8723 50.72 86.5563 50.4587 85.7537 49.936C84.9697 49.4133 84.5777 48.7507 84.5777 47.948C84.5777 47.3507 84.7457 46.7813 85.0817 46.24L86.7057 45.232V45.064C85.3057 44.4667 84.6057 43.44 84.6057 41.984C84.6057 41.5173 84.6617 41.1067 84.7737 40.752C84.8857 40.3787 85.1003 40.0333 85.4177 39.716L87.0697 38.68V38.512C86.4723 38.12 86.0057 37.644 85.6697 37.084C85.3337 36.5053 85.1657 35.88 85.1657 35.208C85.1657 34.3867 85.4083 33.6493 85.8937 32.996C86.3977 32.3427 87.0697 31.8293 87.9097 31.456C88.7683 31.064 89.7203 30.868 90.7657 30.868C91.3817 30.868 91.9603 30.9333 92.5017 31.064C93.0617 31.176 93.5097 31.316 93.8457 31.484L98.2417 31.148V32.968L95.3017 32.716L95.1897 32.8C95.5257 33.0987 95.8057 33.4627 96.0297 33.892C96.2537 34.3027 96.3657 34.7413 96.3657 35.208C96.3657 36.0293 96.1137 36.7667 95.6097 37.42C95.1243 38.0733 94.4523 38.596 93.5937 38.988C92.7537 39.3613 91.811 39.548 90.7657 39.548ZM90.9057 38.344C91.4097 38.344 91.7737 38.0827 91.9977 37.56C92.2403 37.0373 92.3617 36.2813 92.3617 35.292C92.3617 34.1907 92.2123 33.3787 91.9137 32.856C91.6337 32.3333 91.251 32.072 90.7657 32.072C90.2243 32.072 89.8323 32.3427 89.5897 32.884C89.347 33.4253 89.2257 34.172 89.2257 35.124C89.2257 36.2253 89.3657 37.0373 89.6457 37.56C89.9443 38.0827 90.3643 38.344 90.9057 38.344ZM87.1817 47.248C87.1817 47.92 87.387 48.4707 87.7977 48.9C88.227 49.348 88.9457 49.572 89.9537 49.572C91.0923 49.572 91.979 49.3387 92.6137 48.872C93.267 48.424 93.5937 47.8827 93.5937 47.248C93.5937 46.6133 93.4257 46.1653 93.0897 45.904C92.7723 45.6613 92.203 45.54 91.3817 45.54H89.3657C88.9363 45.54 88.535 45.512 88.1617 45.456C87.8443 45.6613 87.6017 45.904 87.4337 46.184C87.2657 46.4827 87.1817 46.8373 87.1817 47.248ZM102.808 44.252C102.192 44.252 101.613 44.1213 101.072 43.86C100.549 43.5987 100.129 43.216 99.8121 42.712C99.4947 42.1893 99.3454 41.564 99.3641 40.836C99.3827 40.108 99.5041 39.52 99.7281 39.072C99.9707 38.6053 100.419 38.2133 101.072 37.896C101.725 37.56 102.677 37.224 103.928 36.888L106.56 36.188V34.676C106.56 33.9107 106.373 33.3227 106 32.912C105.627 32.5013 105.095 32.296 104.404 32.296C103.377 32.296 102.864 32.6973 102.864 33.5V35.124L102.78 35.236H100.652C100.148 35.236 99.8961 34.928 99.8961 34.312C99.8961 33.9013 100.083 33.5093 100.456 33.136C100.829 32.7627 101.305 32.3987 101.884 32.044C102.649 31.5773 103.331 31.26 103.928 31.092C104.525 30.924 105.179 30.84 105.888 30.84C106.971 30.84 107.941 30.9893 108.8 31.288C109.659 31.568 110.34 31.9973 110.844 32.576C111.348 33.1547 111.6 33.8827 111.6 34.76V41.816C111.749 41.9467 111.917 42.0493 112.104 42.124C112.309 42.1987 112.543 42.236 112.804 42.236H113.42L113.532 42.348V42.936C113.327 43.2347 112.963 43.5333 112.44 43.832C111.917 44.1307 111.217 44.28 110.34 44.28C109.388 44.28 108.613 44.112 108.016 43.776C107.437 43.4213 106.989 42.8987 106.672 42.208H106.56C106.093 42.7867 105.552 43.272 104.936 43.664C104.339 44.056 103.629 44.252 102.808 44.252ZM104.04 39.884C104.04 40.4627 104.189 40.9013 104.488 41.2C104.805 41.4987 105.225 41.648 105.748 41.648C106.009 41.648 106.28 41.6013 106.56 41.508V37.476C105.664 37.6813 105.02 37.9613 104.628 38.316C104.236 38.6707 104.04 39.1933 104.04 39.884ZM114.099 44V43.552L116.031 42.656V34.032L114.183 33.108V32.66L120.343 30.84H120.791L121.043 32.912H121.183C121.818 32.296 122.434 31.8013 123.031 31.428C123.647 31.036 124.412 30.84 125.327 30.84C126.484 30.84 127.427 31.1387 128.155 31.736C128.902 32.3333 129.275 33.22 129.275 34.396V42.656L131.207 43.552V44H123.199V43.552L124.235 42.656V35.432C124.235 34.8907 124.086 34.48 123.787 34.2C123.507 33.9013 123.134 33.752 122.667 33.752C122.406 33.752 122.126 33.808 121.827 33.92C121.547 34.032 121.295 34.1627 121.071 34.312V42.656L122.107 43.552V44H114.099ZM136.769 44.28C136.003 44.28 135.266 44.0467 134.557 43.58C133.866 43.1133 133.297 42.4507 132.849 41.592C132.401 40.7333 132.177 39.716 132.177 38.54C132.177 36.9907 132.438 35.6373 132.961 34.48C133.483 33.3227 134.23 32.4267 135.201 31.792C136.171 31.1573 137.319 30.84 138.645 30.84C139.037 30.84 139.41 30.8587 139.765 30.896C140.138 30.9333 140.502 30.9987 140.857 31.092V26.192L138.869 24.932V24.54L145.449 23H145.897V42.74L147.829 43.552V44H141.137L140.913 42.628H140.717C140.045 43.2067 139.391 43.6267 138.757 43.888C138.141 44.1493 137.478 44.28 136.769 44.28ZM137.217 37.532C137.217 38.9693 137.469 40.0333 137.973 40.724C138.495 41.396 139.027 41.732 139.569 41.732C139.83 41.732 140.045 41.704 140.213 41.648C140.399 41.5733 140.614 41.4707 140.857 41.34V33.108C140.763 32.9027 140.595 32.7347 140.353 32.604C140.11 32.4547 139.849 32.38 139.569 32.38C139.139 32.38 138.747 32.5107 138.393 32.772C138.038 33.0333 137.749 33.5373 137.525 34.284C137.319 35.012 137.217 36.0947 137.217 37.532ZM152.382 44.252C151.766 44.252 151.188 44.1213 150.646 43.86C150.124 43.5987 149.704 43.216 149.386 42.712C149.069 42.1893 148.92 41.564 148.938 40.836C148.957 40.108 149.078 39.52 149.302 39.072C149.545 38.6053 149.993 38.2133 150.646 37.896C151.3 37.56 152.252 37.224 153.502 36.888L156.134 36.188V34.676C156.134 33.9107 155.948 33.3227 155.574 32.912C155.201 32.5013 154.669 32.296 153.978 32.296C152.952 32.296 152.438 32.6973 152.438 33.5V35.124L152.354 35.236H150.226C149.722 35.236 149.47 34.928 149.47 34.312C149.47 33.9013 149.657 33.5093 150.03 33.136C150.404 32.7627 150.88 32.3987 151.458 32.044C152.224 31.5773 152.905 31.26 153.502 31.092C154.1 30.924 154.753 30.84 155.462 30.84C156.545 30.84 157.516 30.9893 158.374 31.288C159.233 31.568 159.914 31.9973 160.418 32.576C160.922 33.1547 161.174 33.8827 161.174 34.76V41.816C161.324 41.9467 161.492 42.0493 161.678 42.124C161.884 42.1987 162.117 42.236 162.378 42.236H162.994L163.106 42.348V42.936C162.901 43.2347 162.537 43.5333 162.014 43.832C161.492 44.1307 160.792 44.28 159.914 44.28C158.962 44.28 158.188 44.112 157.59 43.776C157.012 43.4213 156.564 42.8987 156.246 42.208H156.134C155.668 42.7867 155.126 43.272 154.51 43.664C153.913 44.056 153.204 44.252 152.382 44.252ZM153.614 39.884C153.614 40.4627 153.764 40.9013 154.062 41.2C154.38 41.4987 154.8 41.648 155.322 41.648C155.584 41.648 155.854 41.6013 156.134 41.508V37.476C155.238 37.6813 154.594 37.9613 154.202 38.316C153.81 38.6707 153.614 39.1933 153.614 39.884Z" fill="white"/>
<path d="M164.7 43.92V42.52H177.3V43.92H164.7Z" fill="white"/>
</g>
<defs>
<filter id="filter0_d_13_9" x="-3.16016" y="0" width="184.46" height="58.7202" filterUnits="userSpaceOnUse" color-interpolation-filters="sRGB">
<feFlood flood-opacity="0" result="BackgroundImageFix"/>
<feColorMatrix in="SourceAlpha" type="matrix" values="0 0 0 0 0 0 0 0 0 0 0 0 0 0 0 0 0 0 127 0" result="hardAlpha"/>
<feOffset dy="4"/>
<feGaussianBlur stdDeviation="2"/>
<feComposite in2="hardAlpha" operator="out"/>
<feColorMatrix type="matrix" values="0 0 0 0 0 0 0 0 0 0 0 0 0 0 0 0 0 0 0.25 0"/>
<feBlend mode="normal" in2="BackgroundImageFix" result="effect1_dropShadow_13_9"/>
<feBlend mode="normal" in="SourceGraphic" in2="effect1_dropShadow_13_9" result="shape"/>
</filter>
</defs>
</svg>
